<?xml version="1.0" encoding="UTF-8" standalone="no"?>
<!-- Uploaded to: SVG Repo, www.svgrepo.com, Generator: SVG Repo Mixer Tools -->

<svg
   width="800"
   height="800"
   viewBox="0 0 24 24"
   fill="none"
   version="1.1"
   id="svg1"
   xmlns="http://www.w3.org/2000/svg"
   xmlns:svg="http://www.w3.org/2000/svg">
  <defs
     id="defs1" />
  <path
     d="M 4,19 V 6.2 C 4,5.0799 4,4.51984 4.21799,4.09202 4.40973,3.71569 4.71569,3.40973 5.09202,3.21799 5.51984,3 6.0799,3 7.2,3 h 9.6 c 1.1201,0 1.6802,0 2.108,0.21799 0.3763,0.19174 0.6823,0.4977 0.874,0.87403 C 20,4.51984 20,5.0799 20,6.2 V 17 H 6 c -1.10457,0 -2,0.8954 -2,2 z m 0,0 c 0,1.1046 0.89543,2 2,2 H 20 M 9,7 h 6 m -6,4 h 6 m 4,6 v 4"
     stroke="#000000"
     stroke-width="2"
     stroke-linecap="round"
     stroke-linejoin="round"
     id="path1"
     style="stroke:#212121;stroke-opacity:1" />
</svg>
