<?xml version="1.0" encoding="UTF-8" standalone="no"?>
<!-- Created with Inkscape (http://www.inkscape.org/) -->

<svg
   width="270.93332mm"
   height="270.93332mm"
   viewBox="0 0 270.93332 270.93332"
   version="1.1"
   id="svg1"
   xml:space="preserve"
   sodipodi:docname="favicon.svg"
   inkscape:version="1.3.2 (091e20ef0f, 2023-11-25)"
   xmlns:inkscape="http://www.inkscape.org/namespaces/inkscape"
   xmlns:sodipodi="http://sodipodi.sourceforge.net/DTD/sodipodi-0.dtd"
   xmlns="http://www.w3.org/2000/svg"
   xmlns:svg="http://www.w3.org/2000/svg"><sodipodi:namedview
     id="namedview1"
     pagecolor="#ffffff"
     bordercolor="#000000"
     borderopacity="0.25"
     inkscape:showpageshadow="2"
     inkscape:pageopacity="0.0"
     inkscape:pagecheckerboard="0"
     inkscape:deskcolor="#d1d1d1"
     inkscape:document-units="mm"
     inkscape:zoom="0.28100129"
     inkscape:cx="129.89264"
     inkscape:cy="635.2284"
     inkscape:window-width="1920"
     inkscape:window-height="1011"
     inkscape:window-x="0"
     inkscape:window-y="0"
     inkscape:window-maximized="1"
     inkscape:current-layer="layer1" /><defs
     id="defs1" /><g
     id="layer1"
     transform="scale(0.53333331)"><rect
       style="fill:#f2ba00;stroke-width:5.265;stroke-linecap:round;stroke-miterlimit:3.4"
       id="rect1"
       width="508"
       height="508"
       x="0"
       y="0"
       inkscape:label="background" /><rect
       style="fill:#f2ba00;stroke-width:5.265;stroke-linecap:round;stroke-miterlimit:3.4"
       id="rect2"
       width="508"
       height="508"
       x="0"
       y="0"
       inkscape:label="app-bg" /><g
       id="g52"><path
         d="M 354.16133,54.955819 C 451.34982,112.4504 303.99471,277.00583 297.71619,283.90877 164.59899,430.26491 75.577172,386.3718 58.787109,366.25258 183.88501,570.52327 371.72744,368.47591 391.09396,345.12054 561.67083,139.41055 354.16133,54.955819 354.16133,54.955819 Z"
         style="display:inline;fill:#ff8e00;fill-opacity:1;stroke:none;stroke-width:21.565;stroke-linecap:round;stroke-miterlimit:3.4"
         id="path8" /><path
         id="path51"
         style="display:inline;fill:#ff8e00;fill-opacity:1;stroke:none;stroke-width:21.565;stroke-linecap:round;stroke-miterlimit:3.4"
         d="m 322.8144,49.884294 c -0.51305,5.2e-4 -1.03286,0.0047 -1.56011,0.0124 1.05218,-0.0154 2.07696,-0.01597 3.0763,-0.0036 -0.49882,-0.0061 -1.004,-0.0093 -1.51619,-0.0088 z m -1.56011,0.0124 c -2.21091,0.03236 -4.55534,0.147937 -6.99337,0.329179 -2.43803,0.181242 -4.96967,0.428145 -7.55458,0.722436 -2.92954,0.333986 -5.91435,0.71514 -9.06973,1.256771 -0.54821,0.09411 -1.05849,0.151295 -1.61334,0.252181 -2.03925,0.370821 -4.13391,0.8011 -6.27196,1.281576 -2.13806,0.480475 -4.31953,1.01115 -6.5319,1.581815 -1.13033,0.291601 -2.29427,0.628664 -3.44631,0.94878 -3.80867,1.058436 -7.73585,2.282872 -11.77344,3.676261 -0.96287,0.332313 -1.89415,0.615278 -2.86959,0.9679 -4.84633,1.752046 -9.86125,3.78703 -15.00477,6.076114 -1.19867,0.533491 -2.43375,1.142741 -3.64784,1.70739 -4.31681,2.007748 -8.73351,4.230006 -13.23743,6.65334 -1.29509,0.696845 -2.57203,1.351105 -3.88194,2.084111 -5.51372,3.085528 -11.14977,6.47786 -16.91266,10.241235 -1.11531,0.728353 -2.26324,1.558473 -3.38739,2.313554 -2.43945,1.638584 -4.90072,3.347345 -7.38198,5.121651 -2.48125,1.774306 -4.98251,3.614163 -7.50135,5.515432 -1.55294,1.1722 -3.1002,2.32478 -4.66741,3.54913 -6.08117,4.75085 -12.24663,9.81369 -18.52911,15.38769 -4.26004,3.77971 -8.5667,7.7711 -12.91084,11.95276 -1.11869,1.07687 -2.24995,2.22055 -3.37395,3.32487 -3.47168,3.41091 -6.96838,6.95694 -10.48825,10.63604 -1.30068,1.35952 -2.59928,2.71021 -3.90622,4.10724 -4.57174,4.88693 -9.16908,9.92466 -13.81259,15.28382 -4.00732,4.62492 -19.64702,25.19929 -35.822107,52.30327 -5.391689,9.03467 -10.843009,18.79463 -15.942696,28.93157 -2.549846,5.06845 -5.011713,10.23133 -7.334436,15.44453 -4.645439,10.42643 -8.734117,21.05498 -11.854573,31.5371 -3.900575,13.10262 -6.288487,25.97658 -6.361369,37.9398 -0.04373,7.17793 0.745874,14.02813 2.54248,20.4034 1.19774,4.2502 2.84319,8.28925 4.987293,12.07369 0.4678,0.82569 1.288504,1.79531 2.086694,2.75177 0.921112,1.10369 2.148849,2.29842 3.500045,3.50986 0.263459,0.23535 0.488432,0.4619 0.767912,0.6997 1.187426,1.0135 2.622831,2.04838 4.097941,3.08198 0.678662,0.47317 1.331983,0.94379 2.070158,1.4149 1.329593,0.85216 2.839185,1.68178 4.360974,2.50993 1.165909,0.63091 2.346862,1.25485 3.623034,1.85983 1.413948,0.67357 2.950423,1.30459 4.498951,1.93322 1.658669,0.6692 3.37446,1.31123 5.184179,1.91254 1.49213,0.49853 3.063534,0.9504 4.657597,1.39216 2.12664,0.58527 4.344412,1.10821 6.64869,1.57303 1.580435,0.32098 3.207753,0.60157 4.871023,0.8568 2.55728,0.38881 5.23125,0.67104 7.98039,0.88315 1.69416,0.13231 3.41014,0.23867 5.17643,0.29559 2.94159,0.092 6.01835,0.0261 9.15603,-0.11317 2.34891,-0.10297 4.67601,-0.17996 7.13341,-0.42685 1.11993,-0.11308 2.22254,-0.20258 3.36465,-0.34726 2.01364,-0.25437 4.06983,-0.57279 6.16035,-0.94465 2.09053,-0.37186 4.2154,-0.79716 6.36551,-1.26452 8.42802,-110.1447 65.43528,-214.71917 236.09514,-248.82823 6.9638,-32.36116 1.37343,-62.53509 -30.33871,-81.295293 -0.68643,-0.406075 -1.94665,-0.911742 -3.47007,-1.426787 -0.45619,-0.153687 -1.07863,-0.308903 -1.60662,-0.465088 -1.26479,-0.373347 -2.74182,-0.740875 -4.40542,-1.096573 -0.83024,-0.177019 -1.72844,-0.342165 -2.65462,-0.506429 -1.84538,-0.326514 -3.95159,-0.596618 -6.165,-0.839742 -1.04366,-0.114383 -2.02635,-0.244578 -3.14916,-0.333313 -1.74052,-0.137194 -3.55215,-0.25023 -5.45496,-0.321428 -1.90282,-0.0712 -3.89684,-0.100557 -6.00119,-0.06976 z m 6.00119,0.06976 c 1.90281,0.0712 3.71444,0.184234 5.45496,0.321428 -2.61529,-0.20669 -5.37935,-0.358056 -8.37727,-0.394808 0.99843,0.01236 1.97173,0.03781 2.92231,0.07338 z m 5.45496,0.321428 c 0.27316,0.02159 0.5379,0.04564 0.79737,0.07131 -0.25762,-0.0254 -0.52182,-0.04959 -0.79737,-0.07131 z m 9.31416,1.173055 c -1.62856,-0.288841 -3.41512,-0.527371 -5.33456,-0.746725 1.90909,0.218867 3.72146,0.46131 5.33456,0.746725 z m 0,0 c 0.92618,0.164264 1.82438,0.32941 2.65462,0.506429 -0.85216,-0.182203 -1.70101,-0.337703 -2.65462,-0.506429 z m 2.65462,0.506429 c 1.6636,0.355698 3.14063,0.723226 4.40542,1.096573 -1.28071,-0.37883 -2.71404,-0.73595 -4.40542,-1.096573 z m 6.01204,1.561661 c 1.39311,0.470989 2.5645,0.934017 3.2799,1.320333 -0.71619,-0.387792 -1.86933,-0.845111 -3.2799,-1.320333 z M 148.4049,385.07934 c -2.15011,0.46736 -4.27498,0.89266 -6.36551,1.26452 -1.56772,0.27886 -3.11588,0.52774 -4.64158,0.74207 3.56128,-0.4998 7.24189,-1.18227 11.00657,-2.00142 0.0272,-0.006 0.0548,-0.0124 0.0822,-0.0186 -0.0274,0.005 -0.0536,0.007 -0.0816,0.0134 z m -15.89051,2.55643 c -0.89975,0.0904 -1.78182,0.15793 -2.6541,0.21239 0.8715,-0.0542 1.75304,-0.12141 2.6541,-0.21239 z m -7.13341,0.42685 c 0.85466,-0.0375 1.70642,-0.0716 2.56263,-0.11162 -0.85528,0.0398 -1.70679,0.0736 -2.56263,0.11162 z m -9.15603,0.11317 c 1.8154,0.0585 3.67572,0.0539 5.57175,0.01 -1.89678,0.0434 -3.76016,0.0468 -5.57175,-0.01 z m 0,0 c -0.88315,-0.0285 -1.7538,-0.0691 -2.61535,-0.11937 0.85973,0.0505 1.72848,0.0916 2.61535,0.11937 z m -5.17643,-0.29559 c 0.63531,0.0496 1.27373,0.0953 1.91668,0.13643 -0.64148,-0.0413 -1.27902,-0.0872 -1.91668,-0.13643 z m 0,0 c -0.98094,-0.0766 -1.94927,-0.16144 -2.90628,-0.2558 0.95821,0.095 1.92712,0.18025 2.90628,0.2558 z m -7.98039,-0.88315 c 1.60128,0.24572 3.24208,0.44528 4.92011,0.61288 -1.67879,-0.16861 -3.3223,-0.36995 -4.92011,-0.61288 z m 0,0 c -0.83164,-0.12761 -1.65423,-0.26142 -2.46652,-0.40359 0.80999,0.14233 1.63015,0.27643 2.46652,0.40359 z m -4.871023,-0.8568 c 0.592663,0.12037 1.192034,0.23489 1.797306,0.34469 -0.603335,-0.10984 -1.201772,-0.22455 -1.797306,-0.34469 z m 0,0 c -0.865796,-0.17583 -1.717058,-0.35779 -2.5554,-0.54777 0.83953,0.19088 1.691296,0.37346 2.5554,0.54777 z m -6.64869,-1.57303 c 1.27893,0.35444 2.586452,0.68053 3.926375,0.98651 -1.340666,-0.30721 -2.650329,-0.63533 -3.926375,-0.98651 z m 0,0 c -0.969415,-0.26865 -1.930189,-0.54143 -2.870109,-0.82579 0.937374,0.28443 1.892765,0.55683 2.870109,0.82579 z m -4.657597,-1.39216 c 0.559549,0.18695 1.130082,0.36737 1.70894,0.54312 -0.576351,-0.1755 -1.145863,-0.35603 -1.70894,-0.54312 z m 0,0 c -0.672723,-0.22476 -1.330819,-0.45265 -1.97714,-0.68523 0.647364,0.23358 1.305803,0.46217 1.97714,0.68523 z m -5.184179,-1.91254 c 0.831019,0.33735 1.673302,0.66385 2.534729,0.98185 -0.862337,-0.31927 -1.705541,-0.64731 -2.534729,-0.98185 z m 0,0 c -0.902721,-0.36647 -1.80058,-0.73397 -2.673222,-1.11001 0.868996,0.37549 1.761001,0.74196 2.673222,1.11001 z M 77.20769,379.3293 c 0.177703,0.0847 0.357632,0.16828 0.538986,0.25167 -0.180912,-0.0831 -0.360504,-0.16706 -0.538986,-0.25167 z m 0,0 c -0.319463,-0.15218 -0.632656,-0.30434 -0.940511,-0.45734 0.308393,0.15343 0.621468,0.3061 0.940511,0.45734 z m 0.538986,0.25167 c 0.360391,0.16571 0.727451,0.32926 1.099674,0.49092 -0.371027,-0.16156 -0.737851,-0.3247 -1.099674,-0.49092 z m -4.16202,-2.1115 c 0.584195,0.31791 1.169708,0.63022 1.769401,0.93947 -0.600355,-0.3104 -1.186579,-0.62409 -1.769401,-0.93947 z m 0,0 c -0.950343,-0.51718 -1.896251,-1.0346 -2.796212,-1.55805 0.895769,0.52231 1.832756,1.03668 2.796212,1.55805 z m -4.360974,-2.50993 c 0.166199,0.10652 0.335449,0.21247 0.506945,0.31833 -0.170905,-0.10545 -0.339851,-0.21169 -0.506945,-0.31833 z m -2.070158,-1.4149 c 0.340308,0.23845 0.672509,0.47322 1.012341,0.70797 -0.340312,-0.23561 -0.673126,-0.47147 -1.012341,-0.70797 z m 0,0 c -0.921319,-0.64556 -1.827426,-1.29114 -2.667021,-1.93218 0.834492,0.63866 1.730566,1.27928 2.667021,1.93218 z m -4.865853,-3.78168 c -1.351196,-1.21144 -2.578933,-2.40617 -3.500045,-3.50986 0.932626,1.11748 2.12551,2.282 3.500045,3.50986 z M 154.6934,134.84087 c -0.86792,0.85272 -1.73761,1.71423 -2.60863,2.58382 0.871,-0.86956 1.74055,-1.73095 2.60863,-2.58382 z m 16.28479,-15.27763 c 1.57062,-1.3935 3.13417,-2.75488 4.69067,-4.0876 -1.55627,1.33255 -3.11979,2.69386 -4.69067,4.0876 z m 30.69787,-24.45225 c 0.6202,-0.443494 1.23905,-0.883045 1.85674,-1.318265 -1.2354,0.870443 -2.47589,1.757515 -3.72122,2.660819 0.62256,-0.451572 1.24436,-0.899116 1.86448,-1.342554 z m 10.76937,-7.435205 c 1.28003,-0.835925 2.55235,-1.650264 3.81941,-2.449979 -1.26728,0.79982 -2.53967,1.614267 -3.81941,2.449979 z m 77.30588,-33.936946 c 1.06886,-0.2402 2.12672,-0.467601 3.17241,-0.681612 -1.04574,0.213985 -2.10374,0.441461 -3.17241,0.681612 z m 24.50961,-3.512964 c 1.82798,-0.135891 3.60329,-0.234677 5.30924,-0.289388 -2.8452,0.09097 -5.87679,0.30471 -9.02839,0.607715 1.25967,-0.121 2.50115,-0.227781 3.71915,-0.318327 z m 19.27376,0.135909 c 0.52952,0.05269 1.0367,0.112027 1.54668,0.171049 -0.51158,-0.05936 -1.01473,-0.118296 -1.54668,-0.171049 z m -30.15475,0.988053 c -0.74584,0.09617 -1.49718,0.197731 -2.25722,0.306958 0.75985,-0.109137 1.51144,-0.210761 2.25722,-0.306958 z m -2.25929,0.307475 c -0.75937,0.109141 -1.5275,0.225483 -2.30632,0.3514 0.77791,-0.125691 1.54609,-0.242197 2.30632,-0.3514 z m 48.41926,1.53634 c 0.33349,0.09261 0.67468,0.184255 0.96894,0.275952 -0.30001,-0.09404 -0.63327,-0.183001 -0.96894,-0.275952 z m -77.52756,5.412073 c -0.33442,0.108085 -0.66903,0.216095 -1.00511,0.326595 0.33628,-0.110556 0.67044,-0.218437 1.00511,-0.326595 z M 162.93837,126.89303 c -1.07861,1.00893 -2.16001,2.03039 -3.24372,3.0639 1.08365,-1.03344 2.16504,-2.05491 3.24372,-3.0639 z m -29.51861,30.15578 c -1.15062,1.2701 -2.30379,2.55485 -3.45922,3.85713 1.15542,-1.30227 2.30866,-2.5871 3.45922,-3.85713 z m -69.90374,213.7978 c 0.134246,0.10969 0.271698,0.21962 0.410827,0.3297 -0.138813,-0.11005 -0.276084,-0.21955 -0.410827,-0.3297 z m 6.218225,4.43333 c 0.171634,0.10591 0.345655,0.21144 0.521932,0.31677 -0.175753,-0.1052 -0.349812,-0.2106 -0.521932,-0.31677 z m 5.775875,3.2091 c 0.249153,0.12806 0.500647,0.25509 0.755509,0.38189 -0.255187,-0.12683 -0.506352,-0.25416 -0.755509,-0.38189 z m 54.23803,9.36584 c -0.57843,0.0354 -1.15287,0.0655 -1.72496,0.0925 0.57218,-0.0269 1.14644,-0.0572 1.72496,-0.0925 z" /></g><g
       id="g51"><path
         style="display:inline;fill:none;stroke:#bb6800;stroke-width:21.565;stroke-linecap:round;stroke-miterlimit:3.4;stroke-dasharray:none;stroke-opacity:1"
         d="m 146.02533,379.34005 c 0,0 -10.70302,-209.26073 235.39586,-239.49353"
         id="path4" /><path
         style="display:inline;fill:none;stroke:#bb6800;stroke-width:21.565;stroke-linecap:round;stroke-miterlimit:3.4;stroke-dasharray:none;stroke-opacity:1"
         d="m 56.70071,363.50138 c 10.30808,18.19422 101.56977,73.72132 241.01544,-79.59267 6.27852,-6.90295 153.63381,-171.458 56.44522,-228.952635 C 344.35437,49.154469 246.85502,25.94846 126.4862,164.86822 115.8,177.20135 22.394997,302.95027 56.70071,363.50138 Z"
         id="path5" /><path
         style="display:inline;fill:none;stroke:#bb6800;stroke-width:21.565;stroke-linecap:round;stroke-miterlimit:3.4;stroke-dasharray:none;stroke-opacity:1"
         d="m 354.16138,54.956074 c 0,0 207.5097,84.454416 36.93266,290.164606 -19.47396,23.48494 -209.3086,227.71902 -334.39333,17.76388"
         id="path6" /></g><path
       style="fill:#ff8e00;fill-opacity:1;stroke:#bb6800;stroke-width:15.865;stroke-linecap:round;stroke-miterlimit:3.4;stroke-dasharray:none;stroke-opacity:1"
       d="m 372.49451,252.98917 c 0,0 5.65563,11.1053 22.12063,8.48834 16.46502,-2.61696 13.73901,-24.75204 13.73901,-24.75204"
       id="path57" /><g
       id="g64"><path
         style="fill:#ff8e00;fill-opacity:1;stroke:#bb6800;stroke-width:15.865;stroke-linecap:round;stroke-miterlimit:3.4;stroke-dasharray:none;stroke-opacity:1"
         d="m 335.49121,347.61074 c 0,0 -1.17509,10.80318 -12.29714,22.68853"
         id="path58" /><path
         style="fill:#ff8e00;fill-opacity:1;stroke:#bb6800;stroke-width:15.865;stroke-linecap:round;stroke-miterlimit:3.4;stroke-dasharray:none;stroke-opacity:1"
         d="m 338.93208,299.6948 c 0,0 4.65242,20.00997 22.42591,16.95686 17.77349,-3.0531 15.26559,-21.3718 15.26559,-21.3718 0.54519,-0.65424 -10.90399,-50.81256 1.96271,-64.22446"
         id="path56" /><path
         style="fill:#ff8e00;fill-opacity:1;stroke:#bb6800;stroke-width:15.865;stroke-linecap:round;stroke-miterlimit:3.4;stroke-dasharray:none;stroke-opacity:1"
         d="m 303.46856,332.17011 c 0,0 -3.00961,21.12693 12.61049,25.37547 15.6201,4.24858 20.07898,-9.83406 20.96307,-13.63395 1.19142,-5.1208 -6.32431,-40.45378 9.81358,-60.62615"
         id="path55" /><path
         style="fill:#ff8e00;fill-opacity:1;stroke:#bb6800;stroke-width:15.865;stroke-linecap:round;stroke-miterlimit:3.4;stroke-dasharray:none;stroke-opacity:1"
         d="m 263.45853,360.30069 c 0,0 -6.88781,27.99014 16.55575,28.53534 23.44356,0.5452 18.97293,-24.53397 18.97293,-24.53397 0,0 -4.90679,-24.53395 9.15935,-38.05489"
         id="path54" /><path
         style="fill:#ff8e00;fill-opacity:1;stroke:#bb6800;stroke-width:15.865;stroke-linecap:round;stroke-miterlimit:3.4;stroke-dasharray:none;stroke-opacity:1"
         d="m 200.62149,430.69626 c 0,0 12.02804,-1.07945 13.7243,-19.42992"
         id="path52" /><path
         style="fill:#ff8e00;fill-opacity:1;stroke:#bb6800;stroke-width:15.865;stroke-linecap:round;stroke-miterlimit:3.4;stroke-dasharray:none;stroke-opacity:1"
         d="m 216.50467,389.06074 c 0,0 -11.41122,10.02334 -2.15888,22.2056 9.25234,12.18224 21.93328,6.88393 23.60121,5.61529 1.20859,-0.91927 7.08571,0.70714 15.1044,-34.76015 0,0 5.3972,-21.28036 14.34112,-24.51868"
         id="path53" /></g><g
       id="g63"><path
         style="fill:#ff8e00;fill-opacity:1;stroke:#bb6800;stroke-width:15.865;stroke-linecap:round;stroke-miterlimit:3.4;stroke-dasharray:none;stroke-opacity:1"
         d="m 221.48628,138.34561 c 0,0 3.80811,16.32261 17.06979,16.47682 13.26168,0.1542 17.97513,-12.50398 20.04673,-16.03738 3.99327,-6.8111 10.7944,-45.336452 29.14486,-50.887854"
         id="path62" /><path
         style="fill:#ff8e00;fill-opacity:1;stroke:#bb6800;stroke-width:15.865;stroke-linecap:round;stroke-miterlimit:3.4;stroke-dasharray:none;stroke-opacity:1"
         d="m 168.64626,178.3032 c 0,0 2.05935,17.53792 20.25561,17.0753 18.19626,-0.46261 21.13569,-15.94141 22.97663,-23.43925 2.027,-8.25561 6.93926,-49.96261 23.90187,-53.35514"
         id="path61" /><path
         style="fill:#ff8e00;fill-opacity:1;stroke:#bb6800;stroke-width:15.865;stroke-linecap:round;stroke-miterlimit:3.4;stroke-dasharray:none;stroke-opacity:1"
         d="m 123.21083,228.94986 c 0,0 3.08356,19.01275 21.12562,16.85387 18.04205,-2.15887 16.91555,-16.64864 17.57944,-27.98565 1.26852,-21.66232 0.46261,-50.35079 23.74766,-59.44892"
         id="path60" /><path
         style="fill:#ff8e00;fill-opacity:1;stroke:#bb6800;stroke-width:15.865;stroke-linecap:round;stroke-miterlimit:3.4;stroke-dasharray:none;stroke-opacity:1"
         d="m 271.92989,108.4181 c 0,0 2.55608,15.10059 19.2103,14.79218 16.6542,-0.30841 18.04205,-13.7243 18.04205,-13.7243"
         id="path63" /><path
         style="fill:#ff8e00;fill-opacity:1;stroke:#bb6800;stroke-width:15.865;stroke-linecap:round;stroke-miterlimit:3.4;stroke-dasharray:none;stroke-opacity:1"
         d="m 94.065418,277.26167 c 0,0 -12.038025,19.29454 5.088787,28.37384 12.799065,6.78506 23.379515,-2.34816 25.443925,-11.41123 4.72053,-20.72379 -0.10604,-39.25844 -2.31308,-56.74764 -0.61518,-4.87483 -0.46262,-16.65421 10.17757,-24.36449"
         id="path59" /></g></g></svg>
