<?xml version="1.0" encoding="UTF-8" standalone="no"?>
<!-- Created with Inkscape (http://www.inkscape.org/) -->

<svg
   width="211.66667mm"
   height="211.66667mm"
   viewBox="0 0 211.66667 211.66667"
   version="1.1"
   id="svg1"
   xml:space="preserve"
   sodipodi:docname="script.svg"
   inkscape:version="1.3.2 (091e20ef0f, 2023-11-25)"
   inkscape:export-filename="../script.png"
   inkscape:export-xdpi="96"
   inkscape:export-ydpi="96"
   xmlns:inkscape="http://www.inkscape.org/namespaces/inkscape"
   xmlns:sodipodi="http://sodipodi.sourceforge.net/DTD/sodipodi-0.dtd"
   xmlns="http://www.w3.org/2000/svg"
   xmlns:svg="http://www.w3.org/2000/svg"><sodipodi:namedview
     id="namedview1"
     pagecolor="#ffffff"
     bordercolor="#000000"
     borderopacity="0.25"
     inkscape:showpageshadow="2"
     inkscape:pageopacity="0.0"
     inkscape:pagecheckerboard="0"
     inkscape:deskcolor="#d1d1d1"
     inkscape:document-units="mm"
     inkscape:zoom="0.33720154"
     inkscape:cx="268.38549"
     inkscape:cy="-31.138648"
     inkscape:window-width="1920"
     inkscape:window-height="1011"
     inkscape:window-x="0"
     inkscape:window-y="0"
     inkscape:window-maximized="1"
     inkscape:current-layer="g9"><inkscape:page
       x="0"
       y="0"
       width="211.66667"
       height="211.66667"
       id="page1"
       margin="0"
       bleed="0"
       inkscape:export-filename="../tengwar-active.png"
       inkscape:export-xdpi="96"
       inkscape:export-ydpi="96" /><inkscape:page
       x="0"
       y="-237.07689"
       width="211"
       height="211"
       id="page2"
       margin="0"
       bleed="0" /></sodipodi:namedview><defs
     id="defs1" /><g
     id="layer1"
     style="stroke:#000000;stroke-opacity:1"
     transform="translate(33.289646,-74.512459)"><g
       id="g6"
       transform="matrix(7.5847664,0,0,7.5847664,-751.47368,-336.18669)"
       style="stroke:#000000;stroke-opacity:1"
       inkscape:label="unactive"><path
         style="display:inline;opacity:1;fill:none;fill-opacity:1;stroke:#52656c;stroke-width:0.581064;stroke-linecap:round;stroke-miterlimit:3.4;stroke-dasharray:none;stroke-opacity:1;paint-order:stroke fill markers"
         d="m 100.01526,80.689272 c 4.20304,-2.037191 3.54289,-8.964288 3.4525,-13.659902 -0.0377,-1.958694 0.091,-2.227775 -0.7291,-2.594738 -1.36585,-0.611205 -4.031716,1.974154 -4.031716,1.974154 0,0 2.897006,-0.666594 3.111446,0.191171 0.37406,5.086385 -0.32604,9.243535 -1.80313,14.089315 z"
         id="path1"
         sodipodi:nodetypes="csaccc" /><path
         id="path2"
         style="display:inline;opacity:1;fill:none;fill-opacity:1;stroke:#52656c;stroke-width:0.581064;stroke-linecap:round;stroke-miterlimit:3.4;stroke-dasharray:none;stroke-opacity:1;paint-order:stroke fill markers"
         d="m 113.91085,64.432449 c -1.45415,0.34773 -3.58949,2.818373 -3.73099,2.489764 -0.11251,-0.261294 -1.62568,-3.64939 -4.1405,-2.92595 -1.56542,0.450326 -2.49976,2.188948 -2.49976,2.188948 l -0.0274,2.070707 c 1.97641,-3.535721 3.78566,-2.651011 3.78566,-2.651011 2.20461,1.482099 1.64404,3.83073 1.06841,4.220021 -0.75885,0.5132 -1.08106,0.686269 -1.78901,0.335438 -0.70795,-0.350831 -1.67284,-0.235978 -1.52274,0.879115 0.15011,1.115097 1.13933,1.202445 1.43665,1.179291 3.50957,-0.273312 5.56355,-4.963873 6.84136,-5.710663 0.85132,-0.497542 2.11233,-0.04831 1.87888,2.108112 -0.35511,3.280256 -2.4832,0.396365 -3.70199,2.272947 -0.57087,0.878979 2.466,3.133553 5.3046,-0.944234 1.49335,-2.583108 0.84695,-6.409248 -2.90317,-5.512485 z"
         sodipodi:nodetypes="ssscccsscssssss" /><path
         style="opacity:1;fill:none;fill-opacity:1;stroke:#52656c;stroke-width:0.581064;stroke-linecap:round;stroke-miterlimit:3.4;stroke-dasharray:none;stroke-opacity:1;paint-order:stroke fill markers"
         d="m 102.63327,63.617076 c 0,0 2.94939,-2.081691 4.64012,-2.050639 2.01289,0.03697 3.15343,0.844659 5.44309,0.632373 2.28965,-0.212286 3.80157,-1.607765 3.80157,-1.607765 -0.26312,2.888963 -6.08319,3.706508 -8.55971,2.594377 -1.62456,-0.72954 -5.32507,0.431654 -5.32507,0.431654 z"
         id="path4"
         sodipodi:nodetypes="csscsc" /><rect
         style="opacity:1;fill:none;fill-opacity:1;stroke:#52656c;stroke-width:0.581064;stroke-linecap:round;stroke-miterlimit:3.4;stroke-dasharray:none;stroke-opacity:1;paint-order:stroke fill markers"
         id="rect4"
         width="1.9560633"
         height="1.9560633"
         x="34.063683"
         y="117.82216"
         transform="rotate(-45)"
         inkscape:transform-center-x="9.7957676"
         inkscape:transform-center-y="13.372044" /><rect
         style="opacity:1;fill:none;fill-opacity:1;stroke:#52656c;stroke-width:0.581064;stroke-linecap:round;stroke-miterlimit:3.4;stroke-dasharray:none;stroke-opacity:1;paint-order:stroke fill markers"
         id="rect5"
         width="1.9560633"
         height="1.9560633"
         x="36.433254"
         y="120.19173"
         transform="rotate(-45)"
         inkscape:transform-center-x="-15.621456"
         inkscape:transform-center-y="13.372105" /><rect
         style="opacity:1;fill:none;fill-opacity:1;stroke:#52656c;stroke-width:0.581064;stroke-linecap:round;stroke-miterlimit:3.4;stroke-dasharray:none;stroke-opacity:1;paint-order:stroke fill markers"
         id="rect6"
         width="1.9560633"
         height="1.9560633"
         x="36.926472"
         y="117.14667"
         transform="rotate(-45)"
         inkscape:transform-center-x="-1.9353168"
         inkscape:transform-center-y="-5.6045209" /></g><g
       id="g9"
       transform="matrix(7.5847664,0,0,7.5847664,-748.30165,-574.3385)"
       style="stroke:#000000;stroke-opacity:1"
       inkscape:label="active"><path
         style="display:inline;opacity:1;fill:#ff8e00;fill-opacity:1;stroke:none;stroke-width:0.581064;stroke-linecap:round;stroke-miterlimit:3.4;stroke-dasharray:none;stroke-opacity:1;paint-order:stroke fill markers"
         d="m 100.01526,80.689272 c 4.20304,-2.037191 3.54289,-8.964288 3.4525,-13.659902 -0.0377,-1.958694 0.091,-2.227775 -0.7291,-2.594738 -1.36585,-0.611205 -4.031716,1.974154 -4.031716,1.974154 0,0 2.897006,-0.666594 3.111446,0.191171 0.37406,5.086385 -0.32604,9.243535 -1.80313,14.089315 z"
         id="path3"
         sodipodi:nodetypes="csaccc" /><path
         id="path5"
         style="display:inline;opacity:1;fill:#ff8e00;fill-opacity:1;stroke:none;stroke-width:0.581064;stroke-linecap:round;stroke-miterlimit:3.4;stroke-dasharray:none;stroke-opacity:1;paint-order:stroke fill markers"
         d="m 113.91085,64.432449 c -1.45415,0.34773 -3.58949,2.818373 -3.73099,2.489764 -0.11251,-0.261294 -1.62568,-3.64939 -4.1405,-2.92595 -1.56542,0.450326 -3.19805,2.460504 -3.19805,2.460504 l 0.23123,2.031914 c 1.97641,-3.535721 4.22532,-2.883774 4.22532,-2.883774 2.20461,1.482099 1.64404,3.83073 1.06841,4.220021 -0.75885,0.5132 -1.08106,0.686269 -1.78901,0.335438 -0.70795,-0.350831 -1.67284,-0.235978 -1.52274,0.879115 0.15011,1.115097 1.13933,1.202445 1.43665,1.179291 3.50957,-0.273312 5.56355,-4.963873 6.84136,-5.710663 0.85132,-0.497542 2.11233,-0.04831 1.87888,2.108112 -0.35511,3.280256 -2.4832,0.396365 -3.70199,2.272947 -0.57087,0.878979 2.466,3.133553 5.3046,-0.944234 1.49335,-2.583108 0.84695,-6.409248 -2.90317,-5.512485 z"
         sodipodi:nodetypes="ssscccsscssssss" /><path
         style="opacity:1;fill:#ff8e00;fill-opacity:1;stroke:none;stroke-width:0.581064;stroke-linecap:round;stroke-miterlimit:3.4;stroke-dasharray:none;stroke-opacity:1;paint-order:stroke fill markers"
         d="m 102.63327,63.617076 c 0,0 2.94939,-2.081691 4.64012,-2.050639 2.01289,0.03697 3.15343,0.844659 5.44309,0.632373 2.28965,-0.212286 3.80157,-1.607765 3.80157,-1.607765 -0.26312,2.888963 -6.08319,3.706508 -8.55971,2.594377 -1.62456,-0.72954 -5.32507,0.431654 -5.32507,0.431654 z"
         id="path6"
         sodipodi:nodetypes="csscsc" /><rect
         style="opacity:1;fill:#ff8e00;fill-opacity:1;stroke:none;stroke-width:0.581064;stroke-linecap:round;stroke-miterlimit:3.4;stroke-dasharray:none;stroke-opacity:1;paint-order:stroke fill markers"
         id="rect7"
         width="1.9560633"
         height="1.9560633"
         x="34.063683"
         y="117.82216"
         transform="rotate(-45)"
         inkscape:transform-center-x="9.7957676"
         inkscape:transform-center-y="13.372044" /><rect
         style="opacity:1;fill:#ff8e00;fill-opacity:1;stroke:none;stroke-width:0.581064;stroke-linecap:round;stroke-miterlimit:3.4;stroke-dasharray:none;stroke-opacity:1;paint-order:stroke fill markers"
         id="rect8"
         width="1.9560633"
         height="1.9560633"
         x="36.433254"
         y="120.19173"
         transform="rotate(-45)"
         inkscape:transform-center-x="-15.621456"
         inkscape:transform-center-y="13.372105" /><rect
         style="opacity:1;fill:#ff8e00;fill-opacity:1;stroke:none;stroke-width:0.581064;stroke-linecap:round;stroke-miterlimit:3.4;stroke-dasharray:none;stroke-opacity:1;paint-order:stroke fill markers"
         id="rect9"
         width="1.9560633"
         height="1.9560633"
         x="36.926472"
         y="117.14667"
         transform="rotate(-45)"
         inkscape:transform-center-x="-1.9353168"
         inkscape:transform-center-y="-5.6045209" /></g></g></svg>
