<?xml version="1.0" encoding="UTF-8" standalone="no"?>
<!-- Created with Inkscape (http://www.inkscape.org/) -->

<svg
   width="211.66667mm"
   height="211.66667mm"
   viewBox="0 0 211.66667 211.66667"
   version="1.1"
   id="svg1"
   xml:space="preserve"
   sodipodi:docname="script.svg"
   inkscape:version="1.3.2 (091e20ef0f, 2023-11-25)"
   inkscape:export-filename="../script.png"
   inkscape:export-xdpi="96"
   inkscape:export-ydpi="96"
   xmlns:inkscape="http://www.inkscape.org/namespaces/inkscape"
   xmlns:sodipodi="http://sodipodi.sourceforge.net/DTD/sodipodi-0.dtd"
   xmlns="http://www.w3.org/2000/svg"
   xmlns:svg="http://www.w3.org/2000/svg"><sodipodi:namedview
     id="namedview1"
     pagecolor="#ffffff"
     bordercolor="#000000"
     borderopacity="0.25"
     inkscape:showpageshadow="2"
     inkscape:pageopacity="0.0"
     inkscape:pagecheckerboard="0"
     inkscape:deskcolor="#d1d1d1"
     inkscape:document-units="mm"
     inkscape:zoom="0.47687499"
     inkscape:cx="28.309306"
     inkscape:cy="374.31194"
     inkscape:window-width="1920"
     inkscape:window-height="1011"
     inkscape:window-x="0"
     inkscape:window-y="0"
     inkscape:window-maximized="1"
     inkscape:current-layer="svg1" /><defs
     id="defs1" /><g
     id="layer1"><g
       id="g6"
       transform="matrix(7.5847664,0,0,7.5847664,-751.47368,-336.18669)"><path
         style="opacity:1;fill:#212121;fill-opacity:1;stroke:none;stroke-width:6.26499;stroke-linecap:round;stroke-miterlimit:3.4;paint-order:stroke fill markers"
         d="m 103.58994,72.23075 c 4.76835,-2.311189 3.91686,-15.497133 3.91686,-15.497133 0.41358,-3.138351 -0.82716,-2.943725 -0.82716,-2.943725 -1.50836,0.170299 -2.5788,1.946264 -2.5788,1.946264 0,0 1.84895,-1.313728 2.09223,-0.340596 0.42437,5.770495 -0.92737,11.337662 -2.60313,16.83519 z"
         id="path1" /><path
         id="path2"
         style="display:inline;opacity:1;fill:#212121;fill-opacity:1;stroke:none;stroke-width:0.365;stroke-linecap:round;stroke-miterlimit:3.4;stroke-dasharray:none;stroke-opacity:1;paint-order:stroke fill markers"
         d="m 119.35447,53.787415 c -1.63,0 -4.23281,2.824633 -4.23281,2.824633 0.0973,-1.24074 -1.09503,-2.213818 -1.09503,-2.213818 0,0 -0.85127,-0.973398 -2.62723,-0.462504 -1.77597,0.510894 -4.54649,3.623551 -4.54649,3.623551 l 0.70435,0.565857 c 2.24223,-4.011269 4.29483,-3.007568 4.29483,-3.007568 2.50112,1.681439 1.92739,5.383316 1.27434,5.824967 -0.86091,0.582224 -1.28869,-0.25879 -2.09186,-0.656807 -0.80317,-0.398017 -1.89784,-0.267716 -1.72755,0.997355 0.1703,1.265075 1.29257,1.364171 1.62988,1.337903 0.91006,-0.07087 1.81549,-0.609666 2.51531,-1.269521 0.64792,-0.610921 1.11959,-1.32561 1.25552,-1.868789 0.65028,-2.598609 2.43824,-4.4162 3.53424,-4.315545 0.83015,0.07623 3.24408,0.540679 2.96148,3.366768 -0.34059,3.405961 -2.40812,2.335775 -2.40812,2.335775 0,0 -2.14094,-1.289803 -2.16524,0.242879 -0.0243,1.532682 1.94613,1.240751 1.94613,1.240751 0,0 1.70295,0.0486 3.13831,-2.457214 1.43537,-2.505814 0.43312,-4.394877 0.17054,-4.671033 -0.18108,-0.19044 -0.90061,-1.437638 -2.5306,-1.437638 z" /><path
         style="opacity:1;fill:#212121;fill-opacity:1;stroke:none;stroke-width:0.365001;stroke-linecap:round;stroke-miterlimit:3.4;stroke-dasharray:none;stroke-opacity:1;paint-order:stroke fill markers"
         d="m 107.32772,53.173584 c 0,0 3.66943,-2.037162 4.64179,-1.932249 2.04594,0.220746 3.59831,1.020506 6.19592,0.779668 2.59761,-0.240838 3.93942,-1.720272 3.93942,-1.720272 -0.29851,3.277523 -7.06752,2.470484 -9.35827,1.926704 -1.78403,-0.423543 -5.41886,0.946149 -5.41886,0.946149 z"
         id="path4" /><rect
         style="opacity:1;fill:#212121;fill-opacity:1;stroke:none;stroke-width:0.365001;stroke-linecap:round;stroke-miterlimit:3.4;stroke-dasharray:none;stroke-opacity:1;paint-order:stroke fill markers"
         id="rect4"
         width="2.2191501"
         height="2.2191501"
         x="44.30793"
         y="113.22475"
         transform="rotate(-45)" /><rect
         style="opacity:1;fill:#212121;fill-opacity:1;stroke:none;stroke-width:0.365001;stroke-linecap:round;stroke-miterlimit:3.4;stroke-dasharray:none;stroke-opacity:1;paint-order:stroke fill markers"
         id="rect5"
         width="2.2191501"
         height="2.2191501"
         x="46.996204"
         y="115.91303"
         transform="rotate(-45)" /><rect
         style="opacity:1;fill:#212121;fill-opacity:1;stroke:none;stroke-width:0.365001;stroke-linecap:round;stroke-miterlimit:3.4;stroke-dasharray:none;stroke-opacity:1;paint-order:stroke fill markers"
         id="rect6"
         width="2.2191501"
         height="2.2191501"
         x="47.555759"
         y="112.45842"
         transform="rotate(-45)" /></g></g></svg>
