<?xml version="1.0" encoding="UTF-8" standalone="no"?>
<svg
   id="Layer_1"
   data-name="Layer 1"
   viewBox="0 0 1123 2436"
   version="1.1"
   sodipodi:docname="loading-page.svg"
   inkscape:version="1.3.2 (091e20ef0f, 2023-11-25)"
   inkscape:export-filename="splash.png"
   inkscape:export-xdpi="96"
   inkscape:export-ydpi="96"
   xmlns:inkscape="http://www.inkscape.org/namespaces/inkscape"
   xmlns:sodipodi="http://sodipodi.sourceforge.net/DTD/sodipodi-0.dtd"
   xmlns="http://www.w3.org/2000/svg"
   xmlns:svg="http://www.w3.org/2000/svg">
  <sodipodi:namedview
     id="namedview20"
     pagecolor="#ffffff"
     bordercolor="#000000"
     borderopacity="0.25"
     inkscape:showpageshadow="2"
     inkscape:pageopacity="0.0"
     inkscape:pagecheckerboard="0"
     inkscape:deskcolor="#d1d1d1"
     inkscape:zoom="0.27515583"
     inkscape:cx="770.47249"
     inkscape:cy="1230.212"
     inkscape:window-width="1920"
     inkscape:window-height="1011"
     inkscape:window-x="0"
     inkscape:window-y="0"
     inkscape:window-maximized="1"
     inkscape:current-layer="Icon" />
  <defs
     id="defs1">
    <style
       id="style1">
      .cls-1 {
        fill: #000;
        stroke-width: 0px;
      }

      .cls-2 {
        fill: none;
        stroke-linecap: round;
        stroke-linejoin: round;
        stroke-width: 22.67px;
      }

      .cls-2, .cls-3 {
        stroke: #000;
      }

      .cls-3 {
        fill: #ff9700;
      }

      .cls-3, .cls-4 {
        stroke-miterlimit: 10;
      }

      .cls-4 {
        fill: #ffd400;
        stroke: #7a4c0e;
        stroke-width: 8px;
      }
    </style>
  </defs>
  <rect
     class="cls-3"
     x=".5"
     y=".5"
     width="1122"
     height="2435"
     id="rect1"
     style="fill:#f2ba00;fill-opacity:1" />
  <g
     id="g5">
    <path
       class="cls-4"
       d="M262.54,982.07c-.35.28-.6.44-.73.47-.14.03-.28-.19-.42-.68-.14-.48-.23-1.27-.26-2.36-.04-1.09-.05-2.79-.05-5.1,0-1.12.02-5.16.05-12.13.04-6.97.05-13.56.05-19.78,0-18.63.03-37.27.05-55.91.03-27.97-3.57-60.5.05-83.9.6-3.87,4.9-11.17,10.61-20.11,5.71-8.94,9.97-14.32,12.72-16.3.29-.21.65-.39,1.08-.54,24.86,28.7,48.86,58.14,72.58,87.78.04-37.7.08-75.4.12-113.11,1.71-4.43,5.71-10.4,12.05-17.71,6.34-7.31,11-11.51,13.95-12.76.4-.17.68-.25.84-.23.16.01.32.25.48.7.16.45.26,1.17.3,2.15.04.98.06,2.47.06,4.46,0,.96-.02,4.78-.06,11.45-.04,6.68-.06,13.09-.06,19.23,0,47.33,0,94.67,0,142-1.83,4.52-5.97,10.31-12.37,17.55-6.39,7.24-10.97,11.63-13.78,13.01-.39.19-.74.29-1.05.28-23.99-29.47-47.91-58.97-72.51-87.94-.04,37.67-.07,75.34-.11,113.01-1.59,4.73-5.32,11.38-11.09,20.13-5.77,8.76-9.91,14.26-12.49,16.35Z"
       id="path1"
       style="fill:#bb6800;fill-opacity:1;stroke:#bb6800;stroke-opacity:1" />
    <path
       class="cls-4"
       d="M523.33,809.09c-.04,7.14-1.71,14.46-5.13,21.89-3.41,7.43-7.9,14.2-13.45,20.39-5.55,6.19-11.63,11.94-18.24,17.3-6.61,5.37-13.24,9.91-19.89,13.65s-12.75,6.35-18.13,7.89c-11.14,3.2-23.82,3.26-33.87-3.36-9.75-6.42-13.82-17.95-13.69-29.17.08-7.09,1.63-14.87,4.89-23.03,3.27-8.16,7.55-15.84,12.87-22.97,5.32-7.13,11.24-13.77,17.76-19.85,6.52-6.08,13.11-11.07,19.77-14.95,6.66-3.88,12.89-6.39,18.5-7.68,12.14-2.79,25.22-.42,34.68,7.99,9.08,8.07,13.97,19.81,13.91,31.9ZM493.92,831.49c-.12-7.78-1.87-14.96-5.59-21.15-3.72-6.18-9.24-10.75-16.53-13.52-7.28-2.77-15.52-2.95-24.67-.39-2.47.69-5.52,2-9.13,3.96-5.21,7.96-9.53,20.1-8.85,29.18.78,10.34,3.68,21.39,13.1,28.25,8.97,6.54,20.88,8.32,31.73,5.81,3.54-.82,7.26-2.05,11.02-3.76,5.4-7.57,9.06-19.16,8.92-28.38Z"
       id="path2"
       style="fill:#bb6800;fill-opacity:1;stroke:#bb6800;stroke-opacity:1" />
    <path
       class="cls-4"
       d="m 537.53,693.78 c -12.23459,5.19999 -1.8,0.43 -3.36,1.11 -1.57,0.68 -2.6,1.05 -3.11,1.1 -0.76,0.08 -1.14,-0.24 -1.14,-0.95 0,-1.67 1.69,-4.52 5.07,-8.49 3.38,-3.96 7.66,-7.79 12.83,-11.4 5.17,-3.61 9.75,-5.49 13.74,-5.68 2.04,-0.1 3.84,0.21 5.41,0.91 1.57,0.7 2.93,1.83 4.07,3.39 1.15,1.56 2.15,3.33 2.99,5.3 0.85,1.97 1.53,4.39 2.04,7.25 0.51,2.86 0.93,5.79 1.27,8.77 0.34,2.98 0.59,6.39 0.76,10.22 0.17,3.82 0.28,7.55 0.32,11.18 0.04,3.63 0.15,7.76 0.19,12.26 v 1.08 c 0.18,11.24 0.27,22.5 0.32,33.73 0.05,11.31 0.06,20.28 0.06,26.86 0,6.58 0.04,13.16 0.13,19.74 0.08,6.58 0.17,11.54 0.25,14.89 0.08,3.35 0.28,6.54 0.57,9.56 0.3,3.03 0.7,5.24 1.21,6.63 0.51,1.39 1.15,2.48 1.91,3.28 0.34,0.32 0.87,0.51 1.59,0.59 0.72,0.08 1.08,0.44 1.08,1.07 0,2.63 -3.59,6.87 -10.76,12.92 -7.18,6.06 -12.33,9.26 -15.47,9.42 -1.61,0.08 -3.05,-0.55 -4.33,-1.91 -1.28,-1.36 -2.29,-3.39 -3.05,-6.09 -0.76,-2.7 -1.38,-5.51 -1.84,-8.43 -0.47,-2.92 -0.81,-6.42 -1.02,-10.52 -0.21,-4.09 -0.36,-7.65 -0.45,-10.67 -0.08,-3.02 -0.13,-6.53 -0.13,-10.52 v -8.37 c 0,-14.24 0.13,-28.49 0.26,-42.73 0.11,-12.29 0.41,-24.75 0.25,-36.86 -1.31044,-16.68582 -3.74044,-44.34838 -11.66,-38.64 z"
       id="path3"
       style="fill:#bb6800;fill-opacity:1;stroke:#bb6800;stroke-opacity:1"
       sodipodi:nodetypes="cccscscsccsscscccscscscssccsscccssccc" />
    <path
       class="cls-4"
       d="M762.86,839.39c0-4.7-.75-9.17-2.24-13.37-1.5-4.21-3.46-7.74-5.9-10.57-2.44-2.83-4.98-5.17-7.63-7-2.65-1.83-5.37-3.17-8.15-4.04-3.77-1.17-7.48-1.55-11.15-1.16-3.66.39-8.51,1.67-9.22,2.97-2.59,4.7.05,20.69.19,31.03.13,9.44.25,16.81.37,22.11.12,5.3.19,8.78.19,10.46,0,2.63-3.81,5.12-11.49,7.72-7.68,2.61-13.38,3.63-17.05,2.87-.84-.17-1.4-.63-1.69-1.36-.29-.74-.44-2.34-.44-4.81,0-.16.17-6.12.44-17.8.28-12.41.42-24.88.44-37.29.02-8.52-2.42-15.72-7.28-21.47-4.86-5.74-10.35-9.12-16.49-10.08-9.51-1.48-16.98.17-22.39,4.67.48,9.67.63,19.37.76,29.04.14,10.41.17,21.12,1.9,31.44,0,.08.02.2.06.37.04.16.06.29.06.37,0,2.71-3.78,5.26-11.35,7.89-7.57,2.63-15.03,4.79-22.37,6.45-7.34,1.66-11.61,2.59-12.79,2.56-1.44-.04-2.16-.45-2.16-1.25,0-.88.83-1.94,2.48-3.17,1.65-1.23,3.46-2.41,5.41-3.54,1.95-1.12,3.01-1.75,3.18-1.91,1.27-1.3,2.16-2.39,2.67-3.29.51-.89,1.02-1.94,1.53-3.15.51-1.21.83-3.44.95-6.71.13-3.26.21-6.59.25-9.98.04-3.39.06-8.99.06-16.8,0-6.14-.25-11.56-.76-16.25-.51-4.69-1.17-8.39-1.97-11.11-.81-2.71-1.76-4.91-2.86-6.59-1.1-1.68-2.14-2.82-3.12-3.41-.98-.59-1.97-.91-2.99-.94-.25,0-.7.08-1.34.26-.64.18-1.25.37-1.85.55-.59.18-1.21.33-1.85.44-.64.11-1.15.08-1.53-.09-.38-.17-.57-.49-.57-.97,0-1.59,1.8-4.08,5.41-7.41,3.61-3.33,8.04-6.38,13.3-9.09,5.26-2.71,9.75-3.88,13.48-3.59,2.46.2,4.61.98,6.48,2.35,1.86,1.37,3.34,3.23,4.44,5.57,1.1,2.34,1.9,4.4,2.41,6.17.51,1.77,1.01,3.92,1.52,6.44,6.68-4.61,14.21-8.19,22.58-10.61,8.37-2.42,16.95-2.74,25.72-.94,3.76.77,7.22,2.17,10.38,4.17,3.16,2,5.61,3.94,7.36,5.8,1.74,1.86,3.38,4.1,4.91,6.72,1.53,2.62,2.47,4.38,2.8,5.26.33.88.7,1.94,1.12,3.16.05.11.07.16.12.27.08.02.99-.4,2.73-1.25,1.73-.85,4.07-1.81,6.99-2.86,2.92-1.05,6.23-1.96,9.92-2.7,3.69-.75,7.98-.99,12.87-.67,4.89.32,9.67,1.34,14.36,3.06,7.27,2.67,13.26,7.31,18.01,13.76,4.75,6.46,7.5,13.57,8.54,20.88.43,3.04.71,10.84.71,23.28v6.88c0,2.43-.02,4.6-.06,6.49-.04,1.9-.08,3.64-.12,5.21-.04,1.58-.06,2.87-.06,3.86v1.61c0,3.51.24,6.4.71,8.68.48,2.28.93,3.74,1.37,4.37.44.63,1.05,1.2,1.84,1.71.48.31.71.46,1.19.77.39.42.59.82.59,1.22,0,2.39-3.33,5.07-10.05,8.25-6.73,3.18-11.73,4.24-14.94,3-3.7-1.43-6.16-5.06-7.37-10.97-1.21-5.91-1.82-14.32-1.82-25.25,0-2.55.04-6.75.12-12.58.08-5.83.12-10.34.12-13.53v-.6Z"
       id="path4"
       style="fill:#bb6800;fill-opacity:1;stroke:#bb6800;stroke-opacity:1" />
    <path
       class="cls-4"
       d="M871.6,934.14c5.45,3.63,10.25,6.44,14.45,8.36,4.19,1.93,7.47,3.05,9.86,3.29,2.39.24,4.43.25,6.13.02,1.7-.24,3.21-.36,4.55-.38,1.33-.02,2.56.43,3.68,1.33.7.56,1.05,1.21,1.05,1.93,0,1.52-1.27,3.07-3.83,4.69-2.56,1.63-5.72,2.86-9.49,3.74-6.34,1.41-13.05,1.31-20.18-.23-7.13-1.54-15.6-5.54-25.42-11.36-12.93-7.66-24.51-19.26-31.92-31.81-7.13-12.09-13.63-26.04-12.81-39.87.62-10.37,2.95-22.45,13.45-29.01,2.87-1.96,6.29-3.6,10.24-4.89,3.95-1.29,8.39-2.15,13.28-2.55,4.89-.39,10.16.14,15.79,1.65,5.63,1.51,11,4.03,16.13,7.52,9.49,6.47,17.53,14.98,23.41,24.85,5.78,9.7,8.62,18.01,8.62,24.71,0,3.75-1.33,6.32-4.01,7.77-2.68,1.44-5.83,1.94-9.48,1.52-3.64-.42-7.1-1.06-10.36-1.94-3.26-.88-5.69-1.74-7.2-2.64-1.9-1.12-5.98-2.55-12.32-4-6.34-1.46-12.31-2.51-17.86-3.23-5.56-.72-8.37-.95-8.37-.87,0,.24.4,1.28,1.2,3.13.8,1.85,2.11,4.37,3.93,7.58,1.82,3.21,3.96,6.55,6.41,10.05,2.45,3.5,5.55,7.11,9.28,10.89,3.73,3.77,7.66,7.02,11.79,9.77ZM840.13,773.26c.68-.17,1.45-.02,2.28.46.84.48,1.58,1.19,2.22,2.12.64.93,2.68,4.18,6.07,9.8.75,1.25,1.37,2.28,1.86,3.09.49.81,1.17,1.94,2.03,3.39.86,1.44,1.71,2.86,2.53,4.25,1.8,2.87,2.69,4.95,2.69,6.22v.24c0,.72-.36,1.31-1.06,1.79-.71.47-2.63,1.4-5.79,2.84-.75.34-1.37.61-1.86.79-.49.18-1.15.47-1.98.85-.83.38-1.62.75-2.38,1.11-1.74.81-3.15.92-4.21.31-.53-.31-1.08-.78-1.65-1.42-.57-.64-1.33-1.67-2.29-3.09-.95-1.41-1.81-2.75-2.58-4.01-.76-1.26-2.03-3.32-3.79-6.15-1.77-2.83-3.34-5.33-4.73-7.5-1.85-2.89-2.78-4.85-2.78-5.89,0-1.12.93-2.15,2.78-3.08,1.85-.93,4.12-2.04,6.68-3.33,3.28-1.65,5.27-2.61,5.96-2.78ZM882.24,889.14c0-.4-.18-1.28-.55-2.66-.36-1.37-1.16-3.45-2.4-6.22-1.24-2.77-2.81-5.63-4.72-8.55-1.91-2.92-4.65-6.2-8.24-9.76-3.59-3.56-7.71-6.79-12.36-9.62-4.06-2.47-8.06-4.15-12.02-5.06-5.4,4.49-8.13,11.6-8.13,21.17,0,2.07.13,4.16.4,6.26.27,2.1.54,3.7.8,4.81.27,1.1.48,1.78.63,2.02,15.55,1.64,31.39,3.27,46.47,7.65.04-.02.07-.03.11-.04ZM885.83,802.44c.65-.09,1.37.15,2.17.72.79.57,1.5,1.36,2.11,2.37.61,1,2.54,4.48,5.75,10.48.71,1.33,1.3,2.44,1.76,3.31.46.87,1.1,2.08,1.92,3.62.82,1.54,1.61,3.06,2.39,4.54,1.63,3.02,2.44,5.17,2.44,6.45v.24c0,.72-.34,1.27-1.01,1.67-.67.39-2.49,1.1-5.48,2.18-.71.26-1.3.45-1.76.58-.46.13-1.09.34-1.88.63-.79.29-1.54.57-2.26.84-1.65.62-2.95.59-3.88-.09-.51-.37-1.03-.9-1.57-1.61-.54-.71-1.27-1.82-2.17-3.34-.91-1.52-1.72-2.95-2.45-4.3-.73-1.35-1.93-3.54-3.61-6.57-1.68-3.03-3.18-5.71-4.5-8.03-1.76-3.1-2.65-5.16-2.65-6.2,0-1.12.89-2.05,2.65-2.78s3.92-1.58,6.36-2.58c3.11-1.28,5.01-2.02,5.66-2.11Z"
       id="path5"
       style="fill:#bb6800;fill-opacity:1;stroke:#bb6800;stroke-opacity:1" />
  </g>
  <g
     id="Icon">
    <path
       d="m 664.46094,993.40039 c -71.89993,0 -172.29009,53.90871 -255.75,137.38871 -126.77988,126.7998 -164.09168,266.211 -118.26172,312.041 12.67999,12.68 31.62104,19.1191 56.29101,19.1191 9.90162,0 20.38443,-1.1177 31.24805,-3.0996 -7.14948,-70.0113 35.41679,-170.7742 112.26172,-247.6191 67.60993,-67.59 161.17921,-113.0098 232.86914,-113.0098 4.68064,0 9.16682,0.2889 13.57227,0.6895 6.78071,-38.3371 1.38444,-69.0648 -15.94141,-86.3907 -12.67999,-12.67996 -31.61909,-19.11911 -56.28906,-19.11911 z"
       style="fill:#ff8e00;stroke-width:18.3874;stroke-linecap:round;stroke-miterlimit:3.4;paint-order:stroke fill markers"
       id="path39" />
    <g
       id="g37">
      <path
         class="cls-1"
         d="M664.46,993.4c24.67,0,43.61,6.44,56.29,19.12,45.83,45.83,8.52,185.24-118.26,312.04-83.46,83.46-183.85,137.39-255.75,137.39-24.67,0-43.61-6.44-56.29-19.12-45.83-45.83-8.52-185.24,118.26-312.04,83.46-83.48,183.85-137.39,255.75-137.39M664.46,963.18c-77.6,0-184.44,53.57-277.12,146.25-130.62,130.6-183.58,289.46-118.26,354.77,18.98,18.98,45.87,27.98,77.66,27.98,77.6,0,184.44-53.57,277.12-146.25,130.63-130.63,183.58-289.47,118.26-354.78-18.97-18.97-45.87-27.96-77.66-27.96h0Z"
         id="path35"
         style="fill:#bb6800;fill-opacity:1" />
      <path
         class="cls-1"
         d="M811.03,1034.68c-55.77-55.77-105.45-65.51-105.82-65.51h0c-1.01-.32-2.15-.44-3.17-.73,15.52,4.5,29.2,11.82,40.1,22.7,11.83,11.83,19.66,26.81,23.97,44.06,7.6,6.03,15.43,12.74,23.55,20.84,26.16,26.16,145.69,167.69-71.14,384.51-83.73,83.73-166.12,126.21-244.85,126.21s-126.58-42.24-139.52-55.18c-7.92-7.92-14.69-15.73-20.66-23.31-17.4-4.29-32.48-12.17-44.39-24.08-9.3-9.3-15.93-20.66-20.56-33.39-.12-.08-.24-.12-.35-.18,0,0,12.08,49.82,64.58,102.32,27.6,27.6,83.9,64.04,160.89,64.04,72.58,0,163.54-32.36,266.23-135.05,213.49-213.49,124.39-374.01,71.14-427.27Z"
         id="path36"
         style="fill:#bb6800;fill-opacity:1" />
      <path
         class="cls-1"
         d="M723.12,1098.22c-71.69,0-165.26,45.42-232.87,113.01-82.72,82.72-125.81,193.21-109.82,263.16,9.6-1.12,19.57-3.04,29.85-5.76-13.6-55.52,22.67-157.36,101.34-236.03,67.95-67.94,153.73-104.15,211.5-104.15,8.95,0,16.99,1.12,24.42,2.89,2.77-10.53,4.46-20.45,5.58-29.99-9.25-2.06-19.27-3.13-30-3.13Z"
         id="path37"
         style="fill:#bb6800;fill-opacity:1" />
    </g>
    <path
       d="m 766.19336,1035.2695 c 19.41189,77.9636 -35.41795,203.7442 -142.33399,310.6602 -92.6799,92.6799 -199.51921,146.25 -277.11914,146.25 -11.76908,0 -22.85572,-1.2489 -33.1289,-3.7656 5.94248,7.5352 12.66885,15.2958 20.53906,23.166 12.93999,12.94 60.78961,55.1797 139.51953,55.1797 78.72992,0 161.11969,-42.4791 244.84961,-126.209 216.82978,-216.8198 97.3006,-358.3518 71.14063,-384.5117 -8.09049,-8.0706 -15.89276,-14.7566 -23.4668,-20.7696 z"
       style="fill:#ff8e00;stroke-width:18.3874;stroke-linecap:round;stroke-miterlimit:3.4;paint-order:stroke fill markers"
       id="path38" />
    <path
       class="cls-2"
       d="M745.14,1245.74c-5.26,4.84-8.57,11.77-8.57,19.48,0,14.6,11.85,26.45,26.45,26.45,13.1,0,26.21-9.2,26.21-24.09,0-4.29-.88-7.97-2.83-12.77"
       id="path9"
       style="stroke:#bb6800;stroke-opacity:1" />
    <path
       class="cls-2"
       d="M696.9,1324.7c-12.76,13.94-11.18,49.98,14.33,49.98,17.71,0,25.82-10.4,28.66-22.04,3.99-16.4-9.13-69.93-2.12-95.25"
       id="path10"
       style="stroke:#bb6800;stroke-opacity:1" />
    <path
       class="cls-2"
       d="M638.87,1389.18c-5.26,4.84-8.57,11.77-8.57,19.48,0,14.6,11.85,26.45,26.45,26.45,9.63,0,16.79-4.84,21.42-12.53"
       id="path11"
       style="stroke:#bb6800;stroke-opacity:1" />
    <path
       class="cls-2"
       d="M578.41,1434.52c-5.26,4.84-8.57,11.77-8.57,19.48,0,14.6,11.85,26.45,26.45,26.45,13.1,0,25.14-9.4,26.09-22.05,1.62-21.66,4.59-45.95,9.33-58.02"
       id="path12"
       style="stroke:#bb6800;stroke-opacity:1" />
    <path
       class="cls-2"
       d="M502.84,1479.86c-5.26,4.84-8.57,11.77-8.57,19.48,0,14.6,11.85,26.45,26.45,26.45,13.1,0,23.84-9.57,26.09-22.05,6.59-36.52,17.37-53.57,26.1-63.31"
       id="path13"
       style="stroke:#bb6800;stroke-opacity:1" />
    <path
       class="cls-2"
       d="M696.9,1324.7c-18.42,13.94-23.14,37.54-17.47,61.67,4.9,20.86,2.18,32.53-6.3,49.12-3.72,7.27-8.3,12.47-11.62,15.73"
       id="path14"
       style="stroke:#bb6800;stroke-opacity:1" />
    <path
       class="cls-2"
       d="M479.38,1541.08s18.92-3.52,17.87-29.61"
       id="path15"
       style="stroke:#bb6800;stroke-opacity:1" />
    <g
       id="g20">
      <path
         class="cls-2"
         d="M532.07,1079.9c-12.05,2.46-21.11,13.13-21.11,25.91,0,14.6,11.85,26.45,26.45,26.45,12.77,0,23.41-9.04,25.91-21.07,0,0,17.84-54.93,26.86-64.1"
         id="path16"
         style="stroke:#bb6800;stroke-opacity:1" />
      <path
         class="cls-2"
         d="M456.5,1140.36c-12.05,2.46-21.11,13.13-21.11,25.91,0,14.6,11.85,26.45,26.45,26.45,12.98,0,23.78-9.36,26.03-21.69,0,0,13.5-57.86,24.2-72.53"
         id="path17"
         style="stroke:#bb6800;stroke-opacity:1" />
      <path
         class="cls-2"
         d="M321.11,1314.3c-4.88,4.79-7.9,11.47-7.9,18.86,0,14.6,11.85,26.45,26.45,26.45,13.21,0,24.35-9.67,26.13-22.35,2.83-20.15-6.62-54.53-.6-98.33"
         id="path18"
         style="stroke:#bb6800;stroke-opacity:1" />
      <path
         class="cls-2"
         d="M377.59,1220.47c-7.63,4.64-12.74,13.03-12.74,22.63,0,14.6,11.85,26.45,26.45,26.45,13.21,0,24.35-9.67,26.13-22.35,2.83-20.15,1.15-60.14,20.62-92.49"
         id="path19"
         style="stroke:#bb6800;stroke-opacity:1" />
      <path
         class="cls-2"
         d="M639.08,1064.74c-2.04,12.58-12.95,22.17-26.1,22.17-14.6,0-26.45-11.85-26.45-26.45,0-13.18,9.64-24.11,22.26-26.12"
         id="path20"
         style="stroke:#bb6800;stroke-opacity:1" />
    </g>
  </g>
</svg>
