<?xml version="1.0" encoding="UTF-8" standalone="no"?>
<!-- Uploaded to: SVG Repo, www.svgrepo.com, Generator: SVG Repo Mixer Tools -->

<svg
   width="800"
   height="800"
   viewBox="0 0 24 24"
   fill="none"
   version="1.1"
   id="svg5"
   xmlns="http://www.w3.org/2000/svg"
   xmlns:svg="http://www.w3.org/2000/svg">
  <defs
     id="defs5" />
  <path
     d="M 10.81,20.38 C 10.2076,20.3793 9.62953,20.1423 9.2,19.72 l -5,-5 C 3.98805,14.5099 3.81982,14.2599 3.70501,13.9844 3.5902,13.7089 3.53109,13.4134 3.53109,13.115 c 0,-0.2984 0.05911,-0.5939 0.17392,-0.8694 C 3.81982,11.9701 3.98805,11.7201 4.2,11.51 l 0.23,-0.24 c 0.42868,-0.4238 1.00718,-0.6615 1.61,-0.6615 0.60281,0 1.18132,0.2377 1.61,0.6615 l 5,5 c 0.2119,0.2101 0.3802,0.4601 0.495,0.7356 0.1148,0.2755 0.1739,0.571 0.1739,0.8694 0,0.2984 -0.0591,0.5939 -0.1739,0.8694 -0.1148,0.2755 -0.2831,0.5255 -0.495,0.7356 l -0.23,0.24 c -0.4295,0.4223 -1.0076,0.6593 -1.61,0.66 z M 6.05,12.11 C 5.94986,12.1088 5.85049,12.1276 5.75774,12.1654 5.665,12.2032 5.58076,12.2591 5.51,12.33 l -0.24,0.24 c -0.07166,0.0715 -0.12851,0.1565 -0.1673,0.25 -0.03879,0.0935 -0.05876,0.1937 -0.05876,0.295 0,0.1012 0.01997,0.2015 0.05876,0.295 0.03879,0.0935 0.09564,0.1785 0.1673,0.25 l 5,5 c 0.1461,0.1453 0.3439,0.2269 0.55,0.2269 0.2061,0 0.4038,-0.0816 0.55,-0.2269 l 0.23,-0.24 c 0.0734,-0.0714 0.1317,-0.157 0.1712,-0.2515 0.0395,-0.0945 0.0595,-0.1961 0.0588,-0.2985 5e-4,-0.1009 -0.0196,-0.2009 -0.0592,-0.2938 C 11.7313,17.4833 11.6731,17.3996 11.6,17.33 l -5,-5 C 6.52739,12.2588 6.4414,12.2027 6.347,12.165 6.2526,12.1272 6.15166,12.1085 6.05,12.11 Z"
     fill="#000000"
     id="path1"
     style="fill:#212121;fill-opacity:1" />
  <path
     d="M 17.92,13.37 C 17.3164,13.3656 16.7385,13.1251 16.31,12.7 l -5,-5 C 10.8838,7.2726 10.6444,6.69362 10.6444,6.09 c 0,-0.60361 0.2394,-1.1826 0.6656,-1.61 l 0.24,-0.24 c 0.427,-0.42319 1.0038,-0.66062 1.605,-0.66062 0.6012,0 1.178,0.23743 1.605,0.66062 l 5,5 c 0.4232,0.42699 0.6606,1.0038 0.6606,1.605 0,0.6012 -0.2374,1.178 -0.6606,1.605 l -0.24,0.24 c -0.4244,0.4264 -0.9985,0.6703 -1.6,0.68 z M 13.16,5.09 C 13.059,5.08888 12.9588,5.10875 12.8659,5.14834 12.7729,5.18793 12.6892,5.24638 12.62,5.32 l -0.24,0.23 c -0.1453,0.14615 -0.2269,0.34389 -0.2269,0.55 0,0.20612 0.0816,0.40385 0.2269,0.55 l 5,5 c 0.1461,0.1453 0.3439,0.2269 0.55,0.2269 0.2061,0 0.4038,-0.0816 0.55,-0.2269 l 0.23,-0.24 c 0.0731,-0.0696 0.1313,-0.1534 0.1708,-0.2462 0.0396,-0.0929 0.0597,-0.1929 0.0592,-0.2938 7e-4,-0.1024 -0.0193,-0.204 -0.0588,-0.2985 C 18.8417,10.477 18.7834,10.3914 18.71,10.32 l -5,-5 C 13.6382,5.24703 13.5526,5.18911 13.4582,5.14961 13.3637,5.11012 13.2624,5.08986 13.16,5.09 Z"
     fill="#000000"
     id="path2"
     style="fill:#212121;fill-opacity:1" />
  <path
     d="M 19.55,10.21 C 18.9476,10.2093 18.3695,9.97235 17.94,9.55 L 14.53,6.13 C 14.3181,5.91989 14.1498,5.66988 14.035,5.39441 13.9202,5.11893 13.8611,4.82344 13.8611,4.525 13.8611,4.22656 13.9202,3.93107 14.035,3.6556 14.1498,3.38012 14.3181,3.13011 14.53,2.92 l 0.23,-0.24 c 0.4274,-0.42624 1.0064,-0.6656 1.61,-0.6656 0.6036,0 1.1826,0.23936 1.61,0.6656 l 3.42,3.41 c 0.4238,0.42868 0.6615,1.00719 0.6615,1.61 0,0.60282 -0.2377,1.18132 -0.6615,1.61 l -0.24,0.24 c -0.4295,0.42235 -1.0076,0.6593 -1.61,0.66 z M 16.37,3.51 C 16.1639,3.51294 15.9669,3.59534 15.82,3.74 L 15.59,4 c -0.0717,0.07152 -0.1285,0.15647 -0.1673,0.24999 -0.0388,0.09352 -0.0588,0.19377 -0.0588,0.29501 0,0.10124 0.02,0.20149 0.0588,0.29501 C 15.4615,4.93353 15.5183,5.01848 15.59,5.09 L 19,8.49 c 0.1462,0.14534 0.3439,0.22692 0.55,0.22692 0.2061,0 0.4038,-0.08158 0.55,-0.22692 L 20.33,8.25 C 20.4032,8.17831 20.4613,8.09273 20.501,7.99829 20.5407,7.90385 20.5611,7.80244 20.5611,7.7 20.5611,7.59756 20.5407,7.49615 20.501,7.40171 20.4613,7.30727 20.4032,7.22169 20.33,7.15 L 16.92,3.74 C 16.7744,3.59353 16.5766,3.51082 16.37,3.51 Z"
     fill="#000000"
     id="path3"
     style="fill:#212121;fill-opacity:1" />
  <path
     d="M 7.63,22 C 7.32648,22.0025 7.02561,21.9435 6.74549,21.8266 6.46536,21.7098 6.21178,21.5374 6,21.32 L 2.61,17.91 C 2.39775,17.699 2.2293,17.4482 2.11436,17.1719 1.99942,16.8956 1.94025,16.5993 1.94025,16.3 c 0,-0.2993 0.05917,-0.5956 0.17411,-0.8719 C 2.2293,15.1518 2.39775,14.901 2.61,14.69 l 0.23,-0.24 c 0.42868,-0.4238 1.00718,-0.6615 1.61,-0.6615 0.60281,0 1.18131,0.2377 1.61,0.6615 l 3.41,3.42 c 0.21194,0.2101 0.38018,0.4601 0.49498,0.7356 0.11482,0.2755 0.17392,0.571 0.17392,0.8694 0,0.2984 -0.0591,0.5939 -0.17392,0.8694 C 9.85018,20.6199 9.68194,20.8699 9.47,21.08 L 9.24,21.32 C 9.03022,21.5346 8.77981,21.7052 8.50339,21.8219 8.22697,21.9387 7.93006,21.9992 7.63,22 Z M 4.45,15.3 C 4.34834,15.2985 4.24739,15.3172 4.15299,15.355 4.05859,15.3928 3.97261,15.4488 3.9,15.52 l -0.23,0.24 c -0.07317,0.0717 -0.13131,0.1573 -0.17099,0.2517 -0.03968,0.0945 -0.06013,0.1959 -0.06013,0.2983 0,0.1024 0.02045,0.2039 0.06013,0.2983 0.03968,0.0944 0.09782,0.18 0.17099,0.2517 l 3.41,3.41 c 0.07152,0.0717 0.15647,0.1285 0.24999,0.1673 0.09351,0.0388 0.19376,0.0588 0.29501,0.0588 0.10124,0 0.20149,-0.02 0.29501,-0.0588 C 8.01353,20.3985 8.09848,20.3417 8.17,20.27 L 8.41,20 C 8.48166,19.9285 8.53851,19.8435 8.5773,19.75 8.61609,19.6565 8.63605,19.5562 8.63605,19.455 8.63605,19.3538 8.61609,19.2535 8.5773,19.16 8.53851,19.0665 8.48166,18.9815 8.41,18.91 L 5,15.51 C 4.92738,15.4388 4.8414,15.3828 4.747,15.345 4.6526,15.3072 4.55166,15.2885 4.45,15.29 Z"
     fill="#000000"
     id="path4"
     style="fill:#212121;fill-opacity:1" />
  <path
     d="M 10.78,16.2 C 10.6812,16.2022 10.583,16.1838 10.4918,16.1459 10.4005,16.108 10.3182,16.0515 10.25,15.98 L 8,13.77 C 7.92924,13.7011 7.87301,13.6186 7.83461,13.5276 7.79621,13.4366 7.77643,13.3388 7.77643,13.24 c 0,-0.0988 0.01978,-0.1966 0.05818,-0.2876 C 7.87301,12.8614 7.92924,12.7789 8,12.71 L 12.71,8 C 12.7782,7.92846 12.8605,7.87195 12.9518,7.83407 13.043,7.79618 13.1412,7.77777 13.24,7.78 13.3388,7.77777 13.437,7.79618 13.5282,7.83407 13.6195,7.87195 13.7018,7.92846 13.77,8 L 16,10.25 c 0.0708,0.0689 0.127,0.1514 0.1654,0.2424 0.0384,0.091 0.0582,0.1888 0.0582,0.2876 0,0.0988 -0.0198,0.1966 -0.0582,0.2876 C 16.127,11.1586 16.0708,11.2411 16,11.31 L 11.31,16 c -0.0699,0.0679 -0.153,0.1207 -0.2442,0.1551 -0.0912,0.0345 -0.1885,0.0497 -0.2858,0.0449 z m -1.15,-3 1.15,1.15 3.61,-3.61 -1.15,-1.11 z"
     fill="#000000"
     id="path5"
     style="fill:#212121;fill-opacity:1" />
</svg>
