<?xml version="1.0" encoding="UTF-8" standalone="no"?>
<!-- Uploaded to: SVG Repo, www.svgrepo.com, Generator: SVG Repo Mixer Tools -->

<svg
   width="800"
   height="800"
   viewBox="0 0 24 24"
   fill="none"
   version="1.1"
   id="svg2"
   xmlns="http://www.w3.org/2000/svg"
   xmlns:svg="http://www.w3.org/2000/svg">
  <defs
     id="defs2" />
  <path
     opacity="0.5"
     d="M 2,12.078081 C 2,9.7896709 2,8.6454609 2.5192,7.6969209 c 0.5192,-0.94853 1.46775,-1.53723 3.36483,-2.71461 l 2,-1.24126 c 2.00536,-1.24458 3.00807,-1.86687 4.11597,-1.86687 1.1079,0 2.1106,0.62229 4.116,1.86687 l 2,1.24125 c 1.8971,1.17739 2.8456,1.76609 3.3648,2.71462 C 22,8.6454609 22,9.7896709 22,12.078081 v 1.5211 c 0,3.9008 0,5.8513 -1.1716,7.0631 -1.1715,1.2119 -3.0572,1.2119 -6.8284,1.2119 h -4 c -3.77124,0 -5.65685,0 -6.82843,-1.2119 C 2,19.450481 2,17.499981 2,13.599181 Z"
     stroke="#1C274C"
     stroke-width="1.5"
     id="path1"
     style="opacity:1;stroke:#212121;stroke-opacity:1" />
  <path
     d="M 15,18 H 9"
     stroke="#1C274C"
     stroke-width="1.5"
     stroke-linecap="round"
     id="path2"
     style="opacity:0.8;stroke:#212121;stroke-opacity:1" />
</svg>
