<?xml version="1.0" encoding="UTF-8" standalone="no"?>
<!-- Uploaded to: SVG Repo, www.svgrepo.com, Generator: SVG Repo Mixer Tools -->

<svg
   width="800"
   height="800"
   viewBox="0 0 24 24"
   fill="none"
   version="1.1"
   id="svg1"
   xmlns="http://www.w3.org/2000/svg"
   xmlns:svg="http://www.w3.org/2000/svg">
  <defs
     id="defs1" />
  <circle
     cx="12"
     cy="12"
     r="3"
     stroke="#1C274C"
     stroke-width="1.5"
     id="circle1"
     style="stroke:#212121;stroke-opacity:1" />
  <path
     d="M 13.7654,2.15224 C 13.3978,2 12.9319,2 12,2 11.0681,2 10.6022,2 10.2346,2.15224 9.74457,2.35523 9.35522,2.74458 9.15223,3.23463 9.05957,3.45834 9.0233,3.7185 9.00911,4.09799 8.98826,4.65568 8.70226,5.17189 8.21894,5.45093 7.73564,5.72996 7.14559,5.71954 6.65219,5.45876 6.31645,5.2813 6.07301,5.18262 5.83294,5.15102 5.30704,5.08178 4.77518,5.22429 4.35436,5.5472 4.03874,5.78938 3.80577,6.1929 3.33983,6.99993 2.87389,7.80697 2.64092,8.21048 2.58899,8.60491 2.51976,9.1308 2.66227,9.66266 2.98518,10.0835 3.13256,10.2756 3.3397,10.437 3.66119,10.639 4.1338,10.936 4.43789,11.4419 4.43786,12 c -3e-5,0.5581 -0.30411,1.0639 -0.77668,1.3608 -0.32153,0.2021 -0.5287,0.3636 -0.6761,0.5557 -0.32291,0.4208 -0.46542,0.9526 -0.39618,1.4785 0.05192,0.3944 0.28489,0.798 0.75083,1.605 0.46595,0.807 0.69892,1.2106 1.01453,1.4527 0.42082,0.3229 0.95268,0.4654 1.47858,0.3962 0.24005,-0.0316 0.48348,-0.1303 0.8192,-0.3077 0.49343,-0.2608 1.08352,-0.2712 1.56686,0.0078 0.48334,0.2791 0.76936,0.7953 0.79021,1.3531 0.0142,0.3794 0.05046,0.6396 0.14312,0.8633 0.20299,0.49 0.59234,0.8794 1.08237,1.0824 C 10.6022,22 11.0681,22 12,22 c 0.9319,0 1.3978,0 1.7654,-0.1522 0.49,-0.203 0.8794,-0.5924 1.0823,-1.0824 0.0927,-0.2237 0.129,-0.4839 0.1432,-0.8634 0.0208,-0.5577 0.3068,-1.0739 0.7901,-1.353 0.4833,-0.2791 1.0734,-0.2686 1.5669,-0.0078 0.3357,0.1774 0.5791,0.276 0.8191,0.3076 0.5259,0.0693 1.0578,-0.0732 1.4786,-0.3961 0.3156,-0.2422 0.5486,-0.6457 1.0145,-1.4528 0.466,-0.807 0.699,-1.2105 0.7509,-1.6049 0.0692,-0.5259 -0.0733,-1.0578 -0.3962,-1.4786 -0.1474,-0.1921 -0.3546,-0.3536 -0.6761,-0.5556 -0.4725,-0.2969 -0.7766,-0.8028 -0.7766,-1.3609 0,-0.5581 0.3041,-1.0638 0.7766,-1.3607 0.3216,-0.2021 0.5288,-0.3635 0.6762,-0.5557 C 21.3378,9.66273 21.4803,9.13087 21.4111,8.60497 21.3592,8.21055 21.1262,7.80703 20.6602,7 20.1943,6.19297 19.9613,5.78945 19.6457,5.54727 19.2249,5.22436 18.693,5.08185 18.1671,5.15109 17.9271,5.18269 17.6837,5.28136 17.3479,5.4588 16.8545,5.71959 16.2644,5.73002 15.7811,5.45096 15.2977,5.17191 15.0117,4.65566 14.9909,4.09794 14.9767,3.71848 14.9404,3.45833 14.8477,3.23463 14.6448,2.74458 14.2554,2.35523 13.7654,2.15224 Z"
     stroke="#1C274C"
     stroke-width="1.5"
     id="path1"
     style="stroke:#212121;stroke-opacity:1" />
</svg>
